<mxfile host="65bd71144e">
    <diagram id="SpsRltMO2tMPuQA8Zpuu" name="Page-1">
        <mxGraphModel dx="1770" dy="677" grid="0" gridSize="10" guides="1" tooltips="1" connect="1" arrows="1" fold="1" page="0" pageScale="1" pageWidth="827" pageHeight="1169" background="#ffffff" math="0" shadow="0">
            <root>
                <mxCell id="0"/>
                <mxCell id="1" parent="0"/>
                <mxCell id="2" value="найм сотрудников" style="rounded=0;whiteSpace=wrap;html=1;fillColor=#e3c800;fontColor=#000000;strokeColor=#B09500;" vertex="1" parent="1">
                    <mxGeometry x="55" y="518" width="120" height="60" as="geometry"/>
                </mxCell>
                <mxCell id="3" value="работа склада" style="rounded=0;whiteSpace=wrap;html=1;fillColor=#e3c800;fontColor=#000000;strokeColor=#B09500;" vertex="1" parent="1">
                    <mxGeometry x="200" y="598" width="120" height="60" as="geometry"/>
                </mxCell>
                <mxCell id="4" value="заказ&amp;nbsp;услуг" style="rounded=0;whiteSpace=wrap;html=1;fillColor=#e3c800;fontColor=#000000;strokeColor=#B09500;" vertex="1" parent="1">
                    <mxGeometry x="200" y="518" width="120" height="60" as="geometry"/>
                </mxCell>
                <mxCell id="5" value="оценка качества" style="rounded=0;whiteSpace=wrap;html=1;fillColor=#e3c800;fontColor=#000000;strokeColor=#B09500;" vertex="1" parent="1">
                    <mxGeometry x="345" y="518" width="120" height="60" as="geometry"/>
                </mxCell>
                <mxCell id="6" value="тотализатор" style="rounded=0;whiteSpace=wrap;html=1;fillColor=#e3c800;fontColor=#000000;strokeColor=#B09500;" vertex="1" parent="1">
                    <mxGeometry x="347" y="598" width="120" height="60" as="geometry"/>
                </mxCell>
                <mxCell id="7" value="выполнение услуг" style="rounded=0;whiteSpace=wrap;html=1;fillColor=#e3c800;fontColor=#000000;strokeColor=#B09500;" vertex="1" parent="1">
                    <mxGeometry x="200" y="678" width="120" height="60" as="geometry"/>
                </mxCell>
                <mxCell id="8" value="" style="whiteSpace=wrap;html=1;aspect=fixed;" vertex="1" parent="1">
                    <mxGeometry x="634" y="498" width="452" height="452" as="geometry"/>
                </mxCell>
                <mxCell id="9" value="generic" style="rounded=0;whiteSpace=wrap;html=1;fillColor=#647687;fontColor=#ffffff;strokeColor=#314354;" vertex="1" parent="1">
                    <mxGeometry x="634" y="498" width="152" height="451" as="geometry"/>
                </mxCell>
                <mxCell id="10" value="supporting" style="rounded=0;whiteSpace=wrap;html=1;fillColor=#76608a;fontColor=#ffffff;strokeColor=#432D57;" vertex="1" parent="1">
                    <mxGeometry x="786" y="498" width="130" height="451" as="geometry"/>
                </mxCell>
                <mxCell id="11" value="" style="rounded=0;whiteSpace=wrap;html=1;fillColor=#76608a;fontColor=#ffffff;strokeColor=#432D57;" vertex="1" parent="1">
                    <mxGeometry x="916" y="815" width="169" height="133" as="geometry"/>
                </mxCell>
                <mxCell id="12" value="core" style="rounded=0;whiteSpace=wrap;html=1;fillColor=#6d8764;fontColor=#ffffff;strokeColor=#3A5431;" vertex="1" parent="1">
                    <mxGeometry x="916" y="498" width="167" height="317" as="geometry"/>
                </mxCell>
                <mxCell id="13" value="" style="endArrow=classic;html=1;strokeColor=#000000;" edge="1" parent="1">
                    <mxGeometry width="50" height="50" relative="1" as="geometry">
                        <mxPoint x="634" y="984" as="sourcePoint"/>
                        <mxPoint x="1084" y="982" as="targetPoint"/>
                    </mxGeometry>
                </mxCell>
                <mxCell id="14" value="Business differentiation" style="edgeLabel;html=1;align=center;verticalAlign=middle;resizable=0;points=[];" vertex="1" connectable="0" parent="13">
                    <mxGeometry x="-0.1156" y="-3" relative="1" as="geometry">
                        <mxPoint as="offset"/>
                    </mxGeometry>
                </mxCell>
                <mxCell id="15" value="" style="endArrow=classic;html=1;strokeColor=#000000;" edge="1" parent="1">
                    <mxGeometry width="50" height="50" relative="1" as="geometry">
                        <mxPoint x="603" y="947" as="sourcePoint"/>
                        <mxPoint x="603" y="496" as="targetPoint"/>
                    </mxGeometry>
                </mxCell>
                <mxCell id="16" value="model complexity" style="edgeLabel;html=1;align=center;verticalAlign=middle;resizable=0;points=[];" vertex="1" connectable="0" parent="15">
                    <mxGeometry x="0.0022" y="4" relative="1" as="geometry">
                        <mxPoint as="offset"/>
                    </mxGeometry>
                </mxCell>
                <mxCell id="18" value="тотализатор" style="ellipse;whiteSpace=wrap;html=1;aspect=fixed;fillColor=#e51400;fontColor=#000000;strokeColor=#B20000;" vertex="1" parent="1">
                    <mxGeometry x="792" y="914" width="25" height="25" as="geometry"/>
                </mxCell>
                <mxCell id="21" value="&lt;h1&gt;Поддомены&lt;/h1&gt;&lt;p&gt;1. Найм сотрудников. Мы хотим видеть у нас на работе только самых лучших котов из топ 3%. Поэтому ожидается, что будем работать над тестами, чтобы улучшать схему выбора лучших котов. Без лучших котов наши клиенты не будут довольны качеством услуг. Поэтому ожидаю что это core функциональность, которая точно будет меняться со временем. Пока что не слишком сложная в реализации&lt;/p&gt;&lt;p&gt;2. заказ услуг. Это про то, что видит клиент, который пользуется нашим продуктом и приносит нам прибыль. Его опыт очень важен нам, от этого зависит весь бизнес. Под услуги надо матчить самых подходящих воркеров, чтобы как можно лучше повысить эффективность котов-тестировщиков. Поэтому это core часть. Тут ожидаются постоянные улучшения. Тут будет довольно сложный и постоянно дорабатываемый алгоритм матчинга.&lt;/p&gt;&lt;p&gt;3. Работа склада. Тут довольно обычная деятельность, похожая на то, как работают любые доставки продуктов из магазинов, разве что мы собираем не пакет для клиента, а пакет расходников для воркера. Печеньки это кастомизация. И тут вероятно будут придуманы еще какие-то фичи, как порадовать клиента. Купить готовое решение из-за необходимых кастомизаций скорее всего не сможем. Однако вероятно тут можно взять что-то более или менее готовое из опенсорса и дополнить своими фичами. Поэтому близко к supporting. Без корректной сборки расходников воркер не выполнит работу и клиент не будет доволен, поэтому это ближе к core.&lt;/p&gt;&lt;p&gt;4. выполнение услуг. Все то, что видит воркер. Все что ему нужно для выполнения заказов и качественной работы. Без этого не сможем сделать клиентов счастливее, поэтому это тоже core. Отдел качества наверняка захочет вмешиваться в их работу, поэтому будет часто меняться.&lt;/p&gt;&lt;p&gt;5. оценка качества. нам нужно предоставить в отдел оченки качества всякие данные по заявкам, чтобы они могли на их основе выдавать решения. Эта часть вряд ли сильно будет меняться. Вероятно изменения будут происходить, когда во всей системе появятся новые данные или новые фичи, но скорее всего эти данные будут доступны на чтение довольно легко как и предыдущие. То есть отделу качества предоставляем данные о системе. Тут не будет очень сложной бизнес логики и частых изменений. Вероятно даже это можно реализовать какими-то готовыми системами. Поэтому в supporting с низкой сложностью и редкими изменениями.&amp;nbsp;&lt;/p&gt;&lt;p&gt;6. тотализатор. Не уверена, что можно купить готовый, так как он должен реагировать на изменение статусов заявок из нашей системы. Однако без этой штуки бизнес вполне себе может жить, а нужен он для повышения мотивации сотрудников. Поэтому в supporting с низкой сложностью и низкой изменчивостью&lt;/p&gt;&lt;p&gt;&lt;br&gt;&lt;/p&gt;&lt;p&gt;&lt;br&gt;&lt;/p&gt;" style="text;html=1;strokeColor=none;fillColor=none;spacing=5;spacingTop=-20;whiteSpace=wrap;overflow=hidden;rounded=0;fontColor=#000000;" vertex="1" parent="1">
                    <mxGeometry x="1146" y="464" width="510" height="706" as="geometry"/>
                </mxCell>
                <mxCell id="22" value="найм сотрудников" style="ellipse;whiteSpace=wrap;html=1;aspect=fixed;fillColor=#e51400;fontColor=#000000;strokeColor=#B20000;" vertex="1" parent="1">
                    <mxGeometry x="985" y="756" width="25" height="25" as="geometry"/>
                </mxCell>
                <mxCell id="23" value="заказ услуг" style="ellipse;whiteSpace=wrap;html=1;aspect=fixed;fillColor=#e51400;fontColor=#000000;strokeColor=#B20000;" vertex="1" parent="1">
                    <mxGeometry x="1036" y="520" width="25" height="25" as="geometry"/>
                </mxCell>
                <mxCell id="24" value="работа склада" style="ellipse;whiteSpace=wrap;html=1;aspect=fixed;fillColor=#e51400;fontColor=#000000;strokeColor=#B20000;" vertex="1" parent="1">
                    <mxGeometry x="928" y="713" width="25" height="25" as="geometry"/>
                </mxCell>
                <mxCell id="28" value="выполнение услуг" style="ellipse;whiteSpace=wrap;html=1;aspect=fixed;fillColor=#e51400;fontColor=#000000;strokeColor=#B20000;" vertex="1" parent="1">
                    <mxGeometry x="1023" y="711.5" width="25" height="25" as="geometry"/>
                </mxCell>
                <mxCell id="29" value="оценка качества" style="ellipse;whiteSpace=wrap;html=1;aspect=fixed;fillColor=#e51400;fontColor=#000000;strokeColor=#B20000;" vertex="1" parent="1">
                    <mxGeometry x="878" y="826" width="25" height="25" as="geometry"/>
                </mxCell>
            </root>
        </mxGraphModel>
    </diagram>
</mxfile>